<mxfile host="app.diagrams.net" agent="Mozilla/5.0 (Windows NT 10.0; Win64; x64) AppleWebKit/537.36 (KHTML, like Gecko) Chrome/128.0.0.0 Safari/537.36" version="24.7.14">
  <diagram name="Page-1" id="1jFlW-SiUOwWIoT6-Ja6">
    <mxGraphModel dx="1434" dy="738" grid="1" gridSize="10" guides="1" tooltips="1" connect="1" arrows="1" fold="1" page="1" pageScale="1" pageWidth="850" pageHeight="1100" math="0" shadow="0">
      <root>
        <mxCell id="0" />
        <mxCell id="1" parent="0" />
        <mxCell id="n0by9OoEUxynI5-dlf-w-30" value="" style="whiteSpace=wrap;html=1;aspect=fixed;" vertex="1" parent="1">
          <mxGeometry x="40" y="220" width="770" height="770" as="geometry" />
        </mxCell>
        <mxCell id="n0by9OoEUxynI5-dlf-w-3" value="" style="verticalLabelPosition=bottom;verticalAlign=top;html=1;shape=mxgraph.basic.rect;fillColor2=none;strokeWidth=1;size=20;indent=5;" vertex="1" parent="1">
          <mxGeometry x="40" y="40" width="770" height="70" as="geometry" />
        </mxCell>
        <mxCell id="n0by9OoEUxynI5-dlf-w-6" value="Socials" style="text;html=1;align=center;verticalAlign=middle;whiteSpace=wrap;rounded=0;" vertex="1" parent="1">
          <mxGeometry x="750" y="60" width="60" height="30" as="geometry" />
        </mxCell>
        <mxCell id="n0by9OoEUxynI5-dlf-w-7" value="Projects" style="text;html=1;align=center;verticalAlign=middle;whiteSpace=wrap;rounded=0;" vertex="1" parent="1">
          <mxGeometry x="630" y="60" width="60" height="30" as="geometry" />
        </mxCell>
        <mxCell id="n0by9OoEUxynI5-dlf-w-8" value="Contact Me" style="text;html=1;align=center;verticalAlign=middle;whiteSpace=wrap;rounded=0;" vertex="1" parent="1">
          <mxGeometry x="690" y="57.5" width="60" height="30" as="geometry" />
        </mxCell>
        <mxCell id="n0by9OoEUxynI5-dlf-w-9" value="Kyle Orwig (Home Button)" style="text;html=1;align=center;verticalAlign=middle;whiteSpace=wrap;rounded=0;" vertex="1" parent="1">
          <mxGeometry x="60" y="60" width="60" height="30" as="geometry" />
        </mxCell>
        <mxCell id="n0by9OoEUxynI5-dlf-w-10" value="&lt;h1 style=&quot;margin-top: 0px;&quot;&gt;&lt;span style=&quot;background-color: initial;&quot;&gt;KYLE ORWIG - FULL STACK DEVELOPER&lt;/span&gt;&lt;/h1&gt;&lt;h1 style=&quot;margin-top: 0px;&quot;&gt;&lt;br&gt;&lt;/h1&gt;" style="text;html=1;whiteSpace=wrap;overflow=hidden;rounded=0;" vertex="1" parent="1">
          <mxGeometry x="160" y="230" width="490" height="150" as="geometry" />
        </mxCell>
        <mxCell id="n0by9OoEUxynI5-dlf-w-11" value="Header" style="text;html=1;align=center;verticalAlign=middle;whiteSpace=wrap;rounded=0;" vertex="1" parent="1">
          <mxGeometry x="395" y="10" width="60" height="30" as="geometry" />
        </mxCell>
        <mxCell id="n0by9OoEUxynI5-dlf-w-14" value="" style="endArrow=classic;html=1;rounded=0;entryX=0.392;entryY=-0.029;entryDx=0;entryDy=0;entryPerimeter=0;" edge="1" parent="1" source="n0by9OoEUxynI5-dlf-w-11" target="n0by9OoEUxynI5-dlf-w-3">
          <mxGeometry width="50" height="50" relative="1" as="geometry">
            <mxPoint x="405" y="70.42714285714288" as="sourcePoint" />
            <mxPoint x="260" y="74.57" as="targetPoint" />
          </mxGeometry>
        </mxCell>
        <mxCell id="n0by9OoEUxynI5-dlf-w-15" value="" style="rounded=0;whiteSpace=wrap;html=1;" vertex="1" parent="1">
          <mxGeometry x="160" y="260" width="490" height="330" as="geometry" />
        </mxCell>
        <mxCell id="n0by9OoEUxynI5-dlf-w-16" value="IMAGE" style="text;html=1;align=center;verticalAlign=middle;whiteSpace=wrap;rounded=0;" vertex="1" parent="1">
          <mxGeometry x="375" y="410" width="60" height="30" as="geometry" />
        </mxCell>
        <mxCell id="n0by9OoEUxynI5-dlf-w-17" value="&lt;h1 style=&quot;margin-top: 0px;&quot;&gt;H2 Summary&lt;/h1&gt;&lt;p&gt;Lorem ipsum dolor sit amet, consectetur adipisicing elit, sed do eiusmod tempor incididunt ut labore et dolore magna aliqua.&lt;/p&gt;" style="text;html=1;whiteSpace=wrap;overflow=hidden;rounded=0;" vertex="1" parent="1">
          <mxGeometry x="160" y="600" width="190" height="120" as="geometry" />
        </mxCell>
        <mxCell id="n0by9OoEUxynI5-dlf-w-18" value="&lt;h1 style=&quot;margin-top: 0px;&quot;&gt;H2 Testimonial&lt;/h1&gt;&lt;p&gt;Lorem ipsum dolor sit amet, consectetur adipisicing elit, sed do eiusmod tempor incididunt ut labore et dolore magna aliqua.&lt;/p&gt;" style="text;html=1;whiteSpace=wrap;overflow=hidden;rounded=0;" vertex="1" parent="1">
          <mxGeometry x="330" y="600" width="190" height="120" as="geometry" />
        </mxCell>
        <mxCell id="n0by9OoEUxynI5-dlf-w-19" value="&lt;h1 style=&quot;margin-top: 0px;&quot;&gt;H2 Future Plans&lt;/h1&gt;&lt;p&gt;Lorem ipsum dolor sit amet, consectetur adipisicing elit, sed do eiusmod tempor incididunt ut labore et dolore magna aliqua.&lt;/p&gt;" style="text;html=1;whiteSpace=wrap;overflow=hidden;rounded=0;" vertex="1" parent="1">
          <mxGeometry x="500" y="600" width="190" height="120" as="geometry" />
        </mxCell>
        <mxCell id="n0by9OoEUxynI5-dlf-w-20" value="" style="rounded=0;whiteSpace=wrap;html=1;" vertex="1" parent="1">
          <mxGeometry x="40" y="920" width="770" height="60" as="geometry" />
        </mxCell>
        <mxCell id="n0by9OoEUxynI5-dlf-w-21" value="Footer" style="text;html=1;align=center;verticalAlign=middle;whiteSpace=wrap;rounded=0;" vertex="1" parent="1">
          <mxGeometry x="410" y="1000" width="60" height="30" as="geometry" />
        </mxCell>
        <mxCell id="n0by9OoEUxynI5-dlf-w-22" value="" style="endArrow=classic;html=1;rounded=0;entryX=0.53;entryY=0.933;entryDx=0;entryDy=0;entryPerimeter=0;" edge="1" parent="1" target="n0by9OoEUxynI5-dlf-w-20">
          <mxGeometry width="50" height="50" relative="1" as="geometry">
            <mxPoint x="440" y="1010" as="sourcePoint" />
            <mxPoint x="490" y="960" as="targetPoint" />
          </mxGeometry>
        </mxCell>
        <mxCell id="n0by9OoEUxynI5-dlf-w-23" value="Copyright" style="text;html=1;align=center;verticalAlign=middle;whiteSpace=wrap;rounded=0;" vertex="1" parent="1">
          <mxGeometry x="60" y="940" width="60" height="30" as="geometry" />
        </mxCell>
        <mxCell id="n0by9OoEUxynI5-dlf-w-24" value="Social Links" style="text;html=1;align=center;verticalAlign=middle;whiteSpace=wrap;rounded=0;" vertex="1" parent="1">
          <mxGeometry x="720" y="935" width="60" height="30" as="geometry" />
        </mxCell>
        <mxCell id="n0by9OoEUxynI5-dlf-w-25" value="" style="rounded=0;whiteSpace=wrap;html=1;" vertex="1" parent="1">
          <mxGeometry x="40" y="110" width="770" height="110" as="geometry" />
        </mxCell>
        <mxCell id="n0by9OoEUxynI5-dlf-w-27" value="Main Banner" style="text;html=1;align=center;verticalAlign=middle;whiteSpace=wrap;rounded=0;" vertex="1" parent="1">
          <mxGeometry x="395" y="170" width="60" height="30" as="geometry" />
        </mxCell>
        <mxCell id="n0by9OoEUxynI5-dlf-w-39" value="" style="verticalLabelPosition=bottom;verticalAlign=top;html=1;shape=mxgraph.basic.rect;fillColor2=none;strokeWidth=1;size=20;indent=5;" vertex="1" parent="1">
          <mxGeometry x="40" y="1210" width="770" height="70" as="geometry" />
        </mxCell>
        <mxCell id="n0by9OoEUxynI5-dlf-w-40" value="Socials" style="text;html=1;align=center;verticalAlign=middle;whiteSpace=wrap;rounded=0;" vertex="1" parent="1">
          <mxGeometry x="750" y="1230" width="60" height="30" as="geometry" />
        </mxCell>
        <mxCell id="n0by9OoEUxynI5-dlf-w-41" value="Projects" style="text;html=1;align=center;verticalAlign=middle;whiteSpace=wrap;rounded=0;" vertex="1" parent="1">
          <mxGeometry x="630" y="1230" width="60" height="30" as="geometry" />
        </mxCell>
        <mxCell id="n0by9OoEUxynI5-dlf-w-42" value="Contact Me" style="text;html=1;align=center;verticalAlign=middle;whiteSpace=wrap;rounded=0;" vertex="1" parent="1">
          <mxGeometry x="690" y="1227.5" width="60" height="30" as="geometry" />
        </mxCell>
        <mxCell id="n0by9OoEUxynI5-dlf-w-43" value="Kyle Orwig (Home Button)" style="text;html=1;align=center;verticalAlign=middle;whiteSpace=wrap;rounded=0;" vertex="1" parent="1">
          <mxGeometry x="60" y="1230" width="60" height="30" as="geometry" />
        </mxCell>
        <mxCell id="n0by9OoEUxynI5-dlf-w-44" value="Header" style="text;html=1;align=center;verticalAlign=middle;whiteSpace=wrap;rounded=0;" vertex="1" parent="1">
          <mxGeometry x="395" y="1180" width="60" height="30" as="geometry" />
        </mxCell>
        <mxCell id="n0by9OoEUxynI5-dlf-w-45" value="" style="endArrow=classic;html=1;rounded=0;entryX=0.392;entryY=-0.029;entryDx=0;entryDy=0;entryPerimeter=0;" edge="1" parent="1" source="n0by9OoEUxynI5-dlf-w-44" target="n0by9OoEUxynI5-dlf-w-39">
          <mxGeometry width="50" height="50" relative="1" as="geometry">
            <mxPoint x="405" y="1240.4271428571428" as="sourcePoint" />
            <mxPoint x="260" y="1244.57" as="targetPoint" />
          </mxGeometry>
        </mxCell>
        <mxCell id="n0by9OoEUxynI5-dlf-w-46" value="" style="rounded=0;whiteSpace=wrap;html=1;" vertex="1" parent="1">
          <mxGeometry x="40" y="1280" width="770" height="110" as="geometry" />
        </mxCell>
        <mxCell id="n0by9OoEUxynI5-dlf-w-47" value="Main Banner" style="text;html=1;align=center;verticalAlign=middle;whiteSpace=wrap;rounded=0;" vertex="1" parent="1">
          <mxGeometry x="395" y="1320" width="60" height="30" as="geometry" />
        </mxCell>
        <mxCell id="n0by9OoEUxynI5-dlf-w-48" value="Page 1" style="text;html=1;align=center;verticalAlign=middle;whiteSpace=wrap;rounded=0;" vertex="1" parent="1">
          <mxGeometry x="395" width="60" height="30" as="geometry" />
        </mxCell>
        <mxCell id="n0by9OoEUxynI5-dlf-w-49" value="Page 2" style="text;html=1;align=center;verticalAlign=middle;whiteSpace=wrap;rounded=0;" vertex="1" parent="1">
          <mxGeometry x="395" y="1160" width="60" height="30" as="geometry" />
        </mxCell>
        <mxCell id="n0by9OoEUxynI5-dlf-w-52" value="" style="rounded=0;whiteSpace=wrap;html=1;" vertex="1" parent="1">
          <mxGeometry x="40" y="1390" width="770" height="700" as="geometry" />
        </mxCell>
        <mxCell id="n0by9OoEUxynI5-dlf-w-53" value="&lt;h1 style=&quot;margin-top: 0px;&quot;&gt;Projects&lt;/h1&gt;" style="text;html=1;whiteSpace=wrap;overflow=hidden;rounded=0;" vertex="1" parent="1">
          <mxGeometry x="375" y="1280" width="100" height="40" as="geometry" />
        </mxCell>
        <mxCell id="n0by9OoEUxynI5-dlf-w-54" value="First slide" style="html=1;shadow=0;dashed=0;strokeColor=none;strokeWidth=1;fillColor=#777777;fontColor=#555555;whiteSpace=wrap;align=center;verticalAlign=middle;fontStyle=0;fontSize=40;" vertex="1" parent="1">
          <mxGeometry x="40" y="1480" width="770" height="300" as="geometry" />
        </mxCell>
        <mxCell id="n0by9OoEUxynI5-dlf-w-55" value="" style="html=1;verticalLabelPosition=bottom;labelBackgroundColor=#ffffff;verticalAlign=top;shadow=0;dashed=0;strokeWidth=4;shape=mxgraph.ios7.misc.more;strokeColor=#a0a0a0;" vertex="1" parent="n0by9OoEUxynI5-dlf-w-54">
          <mxGeometry x="1" y="0.5" width="7" height="14" relative="1" as="geometry">
            <mxPoint x="-50" y="-7" as="offset" />
          </mxGeometry>
        </mxCell>
        <mxCell id="n0by9OoEUxynI5-dlf-w-56" value="" style="flipH=1;html=1;verticalLabelPosition=bottom;labelBackgroundColor=#ffffff;verticalAlign=top;shadow=0;dashed=0;strokeWidth=4;shape=mxgraph.ios7.misc.more;strokeColor=#a0a0a0;" vertex="1" parent="n0by9OoEUxynI5-dlf-w-54">
          <mxGeometry y="0.5" width="7" height="14" relative="1" as="geometry">
            <mxPoint x="43" y="-7" as="offset" />
          </mxGeometry>
        </mxCell>
        <mxCell id="n0by9OoEUxynI5-dlf-w-57" value="" style="html=1;shadow=0;strokeColor=none;fillColor=#ffffff;" vertex="1" parent="n0by9OoEUxynI5-dlf-w-54">
          <mxGeometry x="0.5" y="1" width="30" height="4" relative="1" as="geometry">
            <mxPoint x="-50" y="-20" as="offset" />
          </mxGeometry>
        </mxCell>
        <mxCell id="n0by9OoEUxynI5-dlf-w-58" value="" style="html=1;shadow=0;strokeColor=none;fillColor=#BBBBBB;" vertex="1" parent="n0by9OoEUxynI5-dlf-w-54">
          <mxGeometry x="0.5" y="1" width="30" height="4" relative="1" as="geometry">
            <mxPoint x="-15" y="-20" as="offset" />
          </mxGeometry>
        </mxCell>
        <mxCell id="n0by9OoEUxynI5-dlf-w-59" value="" style="html=1;shadow=0;strokeColor=none;fillColor=#BBBBBB;" vertex="1" parent="n0by9OoEUxynI5-dlf-w-54">
          <mxGeometry x="0.5" y="1" width="30" height="4" relative="1" as="geometry">
            <mxPoint x="20" y="-20" as="offset" />
          </mxGeometry>
        </mxCell>
        <mxCell id="n0by9OoEUxynI5-dlf-w-60" value="&lt;font style=&quot;font-size: 16px&quot;&gt;&lt;b&gt;First slide label&lt;/b&gt;&lt;/font&gt;&lt;br style=&quot;font-size: 14px&quot;&gt;&lt;br style=&quot;font-size: 14px&quot;&gt;Nulla vitae elit libero, a pharetra augue mollis interdum." style="html=1;shadow=0;strokeColor=none;fillColor=none;resizeWidth=1;fontColor=#FFFFFF;fontSize=14;" vertex="1" parent="n0by9OoEUxynI5-dlf-w-54">
          <mxGeometry y="1" width="770" height="60" relative="1" as="geometry">
            <mxPoint y="-90" as="offset" />
          </mxGeometry>
        </mxCell>
        <mxCell id="n0by9OoEUxynI5-dlf-w-61" value="" style="rounded=0;whiteSpace=wrap;html=1;" vertex="1" parent="1">
          <mxGeometry x="40" y="2090" width="770" height="60" as="geometry" />
        </mxCell>
        <mxCell id="n0by9OoEUxynI5-dlf-w-62" value="Footer" style="text;html=1;align=center;verticalAlign=middle;whiteSpace=wrap;rounded=0;" vertex="1" parent="1">
          <mxGeometry x="410" y="2170" width="60" height="30" as="geometry" />
        </mxCell>
        <mxCell id="n0by9OoEUxynI5-dlf-w-63" value="" style="endArrow=classic;html=1;rounded=0;entryX=0.53;entryY=0.933;entryDx=0;entryDy=0;entryPerimeter=0;" edge="1" parent="1" target="n0by9OoEUxynI5-dlf-w-61">
          <mxGeometry width="50" height="50" relative="1" as="geometry">
            <mxPoint x="440" y="2180" as="sourcePoint" />
            <mxPoint x="490" y="2130" as="targetPoint" />
          </mxGeometry>
        </mxCell>
        <mxCell id="n0by9OoEUxynI5-dlf-w-64" value="Copyright" style="text;html=1;align=center;verticalAlign=middle;whiteSpace=wrap;rounded=0;" vertex="1" parent="1">
          <mxGeometry x="60" y="2110" width="60" height="30" as="geometry" />
        </mxCell>
        <mxCell id="n0by9OoEUxynI5-dlf-w-65" value="Social Links" style="text;html=1;align=center;verticalAlign=middle;whiteSpace=wrap;rounded=0;" vertex="1" parent="1">
          <mxGeometry x="720" y="2105" width="60" height="30" as="geometry" />
        </mxCell>
        <mxCell id="n0by9OoEUxynI5-dlf-w-69" value="Socials" style="text;html=1;align=center;verticalAlign=middle;whiteSpace=wrap;rounded=0;" vertex="1" parent="1">
          <mxGeometry x="750" y="2280" width="60" height="30" as="geometry" />
        </mxCell>
        <mxCell id="n0by9OoEUxynI5-dlf-w-68" value="" style="verticalLabelPosition=bottom;verticalAlign=top;html=1;shape=mxgraph.basic.rect;fillColor2=none;strokeWidth=1;size=20;indent=5;" vertex="1" parent="1">
          <mxGeometry x="40" y="2260" width="770" height="70" as="geometry" />
        </mxCell>
        <mxCell id="n0by9OoEUxynI5-dlf-w-70" value="Projects" style="text;html=1;align=center;verticalAlign=middle;whiteSpace=wrap;rounded=0;" vertex="1" parent="1">
          <mxGeometry x="630" y="2280" width="60" height="30" as="geometry" />
        </mxCell>
        <mxCell id="n0by9OoEUxynI5-dlf-w-71" value="Contact Me" style="text;html=1;align=center;verticalAlign=middle;whiteSpace=wrap;rounded=0;" vertex="1" parent="1">
          <mxGeometry x="690" y="2277.5" width="60" height="30" as="geometry" />
        </mxCell>
        <mxCell id="n0by9OoEUxynI5-dlf-w-72" value="Kyle Orwig (Home Button)" style="text;html=1;align=center;verticalAlign=middle;whiteSpace=wrap;rounded=0;" vertex="1" parent="1">
          <mxGeometry x="60" y="2280" width="60" height="30" as="geometry" />
        </mxCell>
        <mxCell id="n0by9OoEUxynI5-dlf-w-73" value="Header" style="text;html=1;align=center;verticalAlign=middle;whiteSpace=wrap;rounded=0;" vertex="1" parent="1">
          <mxGeometry x="395" y="2230" width="60" height="30" as="geometry" />
        </mxCell>
        <mxCell id="n0by9OoEUxynI5-dlf-w-74" value="" style="endArrow=classic;html=1;rounded=0;entryX=0.392;entryY=-0.029;entryDx=0;entryDy=0;entryPerimeter=0;" edge="1" parent="1" source="n0by9OoEUxynI5-dlf-w-73" target="n0by9OoEUxynI5-dlf-w-68">
          <mxGeometry width="50" height="50" relative="1" as="geometry">
            <mxPoint x="405" y="2290.427142857143" as="sourcePoint" />
            <mxPoint x="260" y="2294.5699999999997" as="targetPoint" />
          </mxGeometry>
        </mxCell>
        <mxCell id="n0by9OoEUxynI5-dlf-w-75" value="" style="rounded=0;whiteSpace=wrap;html=1;" vertex="1" parent="1">
          <mxGeometry x="40" y="2330" width="770" height="110" as="geometry" />
        </mxCell>
        <mxCell id="n0by9OoEUxynI5-dlf-w-76" value="Main Banner" style="text;html=1;align=center;verticalAlign=middle;whiteSpace=wrap;rounded=0;" vertex="1" parent="1">
          <mxGeometry x="395" y="2380" width="60" height="30" as="geometry" />
        </mxCell>
        <mxCell id="n0by9OoEUxynI5-dlf-w-77" value="Page 3" style="text;html=1;align=center;verticalAlign=middle;whiteSpace=wrap;rounded=0;" vertex="1" parent="1">
          <mxGeometry x="395" y="2210" width="60" height="30" as="geometry" />
        </mxCell>
        <mxCell id="n0by9OoEUxynI5-dlf-w-78" value="" style="rounded=0;whiteSpace=wrap;html=1;" vertex="1" parent="1">
          <mxGeometry x="40" y="2440" width="770" height="680" as="geometry" />
        </mxCell>
        <mxCell id="n0by9OoEUxynI5-dlf-w-79" value="&lt;h1 style=&quot;margin-top: 0px;&quot;&gt;Home Page&lt;/h1&gt;" style="text;html=1;whiteSpace=wrap;overflow=hidden;rounded=0;" vertex="1" parent="1">
          <mxGeometry x="355" y="120" width="140" height="35" as="geometry" />
        </mxCell>
        <mxCell id="n0by9OoEUxynI5-dlf-w-80" value="&lt;h1 style=&quot;margin-top: 0px;&quot;&gt;Contact Me&lt;/h1&gt;" style="text;html=1;whiteSpace=wrap;overflow=hidden;rounded=0;" vertex="1" parent="1">
          <mxGeometry x="355" y="2340" width="140" height="40" as="geometry" />
        </mxCell>
        <mxCell id="n0by9OoEUxynI5-dlf-w-66" value="" style="verticalLabelPosition=bottom;shadow=0;dashed=0;align=center;html=1;verticalAlign=top;strokeWidth=1;shape=mxgraph.mockup.misc.map;" vertex="1" parent="1">
          <mxGeometry x="150" y="2500" width="550" height="320" as="geometry" />
        </mxCell>
        <mxCell id="n0by9OoEUxynI5-dlf-w-81" value="&lt;h1 style=&quot;margin-top: 0px;&quot;&gt;Location&lt;/h1&gt;" style="text;html=1;whiteSpace=wrap;overflow=hidden;rounded=0;" vertex="1" parent="1">
          <mxGeometry x="370" y="2460" width="110" height="40" as="geometry" />
        </mxCell>
        <mxCell id="n0by9OoEUxynI5-dlf-w-82" value="&lt;h1 style=&quot;margin-top: 0px;&quot;&gt;Contact Form&lt;/h1&gt;" style="text;html=1;whiteSpace=wrap;overflow=hidden;rounded=0;" vertex="1" parent="1">
          <mxGeometry x="345" y="2830" width="160" height="30" as="geometry" />
        </mxCell>
        <mxCell id="n0by9OoEUxynI5-dlf-w-83" value="" style="rounded=0;whiteSpace=wrap;html=1;" vertex="1" parent="1">
          <mxGeometry x="40" y="3120" width="770" height="60" as="geometry" />
        </mxCell>
        <mxCell id="n0by9OoEUxynI5-dlf-w-84" value="Footer" style="text;html=1;align=center;verticalAlign=middle;whiteSpace=wrap;rounded=0;" vertex="1" parent="1">
          <mxGeometry x="410" y="3200" width="60" height="30" as="geometry" />
        </mxCell>
        <mxCell id="n0by9OoEUxynI5-dlf-w-85" value="" style="endArrow=classic;html=1;rounded=0;entryX=0.53;entryY=0.933;entryDx=0;entryDy=0;entryPerimeter=0;" edge="1" parent="1" target="n0by9OoEUxynI5-dlf-w-83">
          <mxGeometry width="50" height="50" relative="1" as="geometry">
            <mxPoint x="440" y="3210" as="sourcePoint" />
            <mxPoint x="490" y="3160" as="targetPoint" />
          </mxGeometry>
        </mxCell>
        <mxCell id="n0by9OoEUxynI5-dlf-w-86" value="Copyright" style="text;html=1;align=center;verticalAlign=middle;whiteSpace=wrap;rounded=0;" vertex="1" parent="1">
          <mxGeometry x="60" y="3140" width="60" height="30" as="geometry" />
        </mxCell>
        <mxCell id="n0by9OoEUxynI5-dlf-w-87" value="Social Links" style="text;html=1;align=center;verticalAlign=middle;whiteSpace=wrap;rounded=0;" vertex="1" parent="1">
          <mxGeometry x="720" y="3135" width="60" height="30" as="geometry" />
        </mxCell>
        <mxCell id="n0by9OoEUxynI5-dlf-w-147" value="" style="rounded=0;whiteSpace=wrap;html=1;" vertex="1" parent="1">
          <mxGeometry x="150" y="2890" width="270" height="30" as="geometry" />
        </mxCell>
        <mxCell id="n0by9OoEUxynI5-dlf-w-148" value="" style="rounded=0;whiteSpace=wrap;html=1;" vertex="1" parent="1">
          <mxGeometry x="420" y="2890" width="280" height="30" as="geometry" />
        </mxCell>
        <mxCell id="n0by9OoEUxynI5-dlf-w-153" value="" style="rounded=0;whiteSpace=wrap;html=1;" vertex="1" parent="1">
          <mxGeometry x="150" y="2920" width="270" height="30" as="geometry" />
        </mxCell>
        <mxCell id="n0by9OoEUxynI5-dlf-w-154" value="" style="rounded=0;whiteSpace=wrap;html=1;" vertex="1" parent="1">
          <mxGeometry x="420" y="2920" width="280" height="30" as="geometry" />
        </mxCell>
        <mxCell id="n0by9OoEUxynI5-dlf-w-155" value="" style="rounded=0;whiteSpace=wrap;html=1;" vertex="1" parent="1">
          <mxGeometry x="150" y="2950" width="270" height="30" as="geometry" />
        </mxCell>
        <mxCell id="n0by9OoEUxynI5-dlf-w-156" value="" style="rounded=0;whiteSpace=wrap;html=1;" vertex="1" parent="1">
          <mxGeometry x="420" y="2950" width="280" height="30" as="geometry" />
        </mxCell>
        <mxCell id="n0by9OoEUxynI5-dlf-w-157" value="" style="rounded=0;whiteSpace=wrap;html=1;" vertex="1" parent="1">
          <mxGeometry x="150" y="2980" width="270" height="30" as="geometry" />
        </mxCell>
        <mxCell id="n0by9OoEUxynI5-dlf-w-158" value="" style="rounded=0;whiteSpace=wrap;html=1;" vertex="1" parent="1">
          <mxGeometry x="420" y="2980" width="280" height="30" as="geometry" />
        </mxCell>
        <mxCell id="n0by9OoEUxynI5-dlf-w-161" value="Name" style="text;html=1;align=center;verticalAlign=middle;whiteSpace=wrap;rounded=0;" vertex="1" parent="1">
          <mxGeometry x="240" y="2890" width="60" height="30" as="geometry" />
        </mxCell>
        <mxCell id="n0by9OoEUxynI5-dlf-w-162" value="Email" style="text;html=1;align=center;verticalAlign=middle;whiteSpace=wrap;rounded=0;" vertex="1" parent="1">
          <mxGeometry x="240" y="2920" width="60" height="30" as="geometry" />
        </mxCell>
        <mxCell id="n0by9OoEUxynI5-dlf-w-163" value="Phone Number" style="text;html=1;align=center;verticalAlign=middle;whiteSpace=wrap;rounded=0;" vertex="1" parent="1">
          <mxGeometry x="240" y="2950" width="60" height="30" as="geometry" />
        </mxCell>
        <mxCell id="n0by9OoEUxynI5-dlf-w-164" value="Additional Info" style="text;html=1;align=center;verticalAlign=middle;whiteSpace=wrap;rounded=0;" vertex="1" parent="1">
          <mxGeometry x="240" y="2980" width="60" height="30" as="geometry" />
        </mxCell>
        <mxCell id="n0by9OoEUxynI5-dlf-w-165" value="SUBMIT" style="rounded=1;fillColor=#0057D8;strokeColor=none;html=1;whiteSpace=wrap;fontColor=#ffffff;align=center;verticalAlign=middle;fontStyle=0;fontSize=12;sketch=0;" vertex="1" parent="1">
          <mxGeometry x="375" y="3008.5" width="86" height="33" as="geometry" />
        </mxCell>
        <mxCell id="n0by9OoEUxynI5-dlf-w-166" value="" style="whiteSpace=wrap;html=1;aspect=fixed;" vertex="1" parent="1">
          <mxGeometry x="210" y="1860" width="100" height="100" as="geometry" />
        </mxCell>
        <mxCell id="n0by9OoEUxynI5-dlf-w-167" value="" style="whiteSpace=wrap;html=1;aspect=fixed;" vertex="1" parent="1">
          <mxGeometry x="345" y="1860" width="100" height="100" as="geometry" />
        </mxCell>
        <mxCell id="n0by9OoEUxynI5-dlf-w-168" value="" style="whiteSpace=wrap;html=1;aspect=fixed;" vertex="1" parent="1">
          <mxGeometry x="480" y="1860" width="100" height="100" as="geometry" />
        </mxCell>
        <mxCell id="n0by9OoEUxynI5-dlf-w-169" value="" style="whiteSpace=wrap;html=1;aspect=fixed;" vertex="1" parent="1">
          <mxGeometry x="210" y="1970" width="100" height="100" as="geometry" />
        </mxCell>
        <mxCell id="n0by9OoEUxynI5-dlf-w-170" value="" style="whiteSpace=wrap;html=1;aspect=fixed;" vertex="1" parent="1">
          <mxGeometry x="345" y="1970" width="100" height="100" as="geometry" />
        </mxCell>
        <mxCell id="n0by9OoEUxynI5-dlf-w-171" value="" style="whiteSpace=wrap;html=1;aspect=fixed;" vertex="1" parent="1">
          <mxGeometry x="480" y="1970" width="100" height="100" as="geometry" />
        </mxCell>
        <mxCell id="n0by9OoEUxynI5-dlf-w-173" value="&lt;h1 style=&quot;margin-top: 0px;&quot;&gt;Gallery&lt;/h1&gt;" style="text;html=1;whiteSpace=wrap;overflow=hidden;rounded=0;" vertex="1" parent="1">
          <mxGeometry x="355" y="1790" width="80" height="40" as="geometry" />
        </mxCell>
        <mxCell id="n0by9OoEUxynI5-dlf-w-174" value="Image" style="text;html=1;align=center;verticalAlign=middle;whiteSpace=wrap;rounded=0;" vertex="1" parent="1">
          <mxGeometry x="230" y="1895" width="60" height="30" as="geometry" />
        </mxCell>
        <mxCell id="n0by9OoEUxynI5-dlf-w-175" value="Image" style="text;html=1;align=center;verticalAlign=middle;whiteSpace=wrap;rounded=0;" vertex="1" parent="1">
          <mxGeometry x="365" y="1895" width="60" height="30" as="geometry" />
        </mxCell>
        <mxCell id="n0by9OoEUxynI5-dlf-w-176" value="Image" style="text;html=1;align=center;verticalAlign=middle;whiteSpace=wrap;rounded=0;" vertex="1" parent="1">
          <mxGeometry x="500" y="1895" width="60" height="30" as="geometry" />
        </mxCell>
        <mxCell id="n0by9OoEUxynI5-dlf-w-177" value="Image" style="text;html=1;align=center;verticalAlign=middle;whiteSpace=wrap;rounded=0;" vertex="1" parent="1">
          <mxGeometry x="230" y="2000" width="60" height="30" as="geometry" />
        </mxCell>
        <mxCell id="n0by9OoEUxynI5-dlf-w-178" value="Image" style="text;html=1;align=center;verticalAlign=middle;whiteSpace=wrap;rounded=0;" vertex="1" parent="1">
          <mxGeometry x="375" y="2000" width="60" height="30" as="geometry" />
        </mxCell>
        <mxCell id="n0by9OoEUxynI5-dlf-w-179" value="Image" style="text;html=1;align=center;verticalAlign=middle;whiteSpace=wrap;rounded=0;" vertex="1" parent="1">
          <mxGeometry x="505" y="2005" width="60" height="30" as="geometry" />
        </mxCell>
      </root>
    </mxGraphModel>
  </diagram>
</mxfile>
